<svg width="107" height="107" viewBox="0 0 107 107" fill="none" xmlns="http://www.w3.org/2000/svg">
<path d="M92.8095 19.8877V39.7754C92.8095 40.6545 92.4602 41.4976 91.8386 42.1192C91.217 42.7408 90.3739 43.09 89.4948 43.09H69.6071C68.728 43.09 67.8849 42.7408 67.2633 42.1192C66.6417 41.4976 66.2925 40.6545 66.2925 39.7754C66.2925 38.8963 66.6417 38.0532 67.2633 37.4316C67.8849 36.81 68.728 36.4608 69.6071 36.4608H81.4942L75.4326 30.3992C69.2722 24.2108 60.9082 20.7194 52.1763 20.6915H51.9899C43.3312 20.6712 35.0125 24.0603 28.8331 30.1257C28.2001 30.7166 27.361 31.0364 26.4953 31.0165C25.6295 30.9966 24.8059 30.6388 24.2007 30.0195C23.5954 29.4001 23.2566 28.5685 23.2566 27.7026C23.2567 26.8366 23.5956 26.0051 24.2009 25.3858C31.69 18.0663 41.7635 13.9954 52.2353 14.0567C62.7071 14.118 72.7323 18.3064 80.1352 25.7131L86.1802 31.7747V19.8877C86.1802 19.0086 86.5294 18.1655 87.151 17.5439C87.7727 16.9223 88.6157 16.5731 89.4948 16.5731C90.3739 16.5731 91.217 16.9223 91.8386 17.5439C92.4602 18.1655 92.8095 19.0086 92.8095 19.8877ZM77.2349 75.9421C70.9944 82.0378 62.6025 85.4277 53.879 85.3765C45.1555 85.3253 36.8039 81.8372 30.6354 75.6686L24.5738 69.607H36.4609C37.34 69.607 38.1831 69.2578 38.8047 68.6362C39.4263 68.0146 39.7755 67.1715 39.7755 66.2924C39.7755 65.4133 39.4263 64.5702 38.8047 63.9486C38.1831 63.327 37.34 62.9778 36.4609 62.9778H16.5732C15.6941 62.9778 14.851 63.327 14.2294 63.9486C13.6078 64.5702 13.2585 65.4133 13.2585 66.2924V86.1801C13.2585 87.0592 13.6078 87.9023 14.2294 88.5239C14.851 89.1455 15.6941 89.4947 16.5732 89.4947C17.4523 89.4947 18.2953 89.1455 18.917 88.5239C19.5386 87.9023 19.8878 87.0592 19.8878 86.1801V74.293L25.9494 80.3547C33.3419 87.7844 43.3818 91.975 53.8627 92.0056H54.0822C64.4739 92.0323 74.4578 87.9641 81.8712 80.682C82.4765 80.0627 82.8155 79.2312 82.8155 78.3652C82.8155 77.4992 82.4767 76.6677 81.8715 76.0483C81.2662 75.429 80.4426 75.0711 79.5769 75.0513C78.7112 75.0314 77.872 75.3511 77.239 75.9421H77.2349Z" fill="#FD1850"/>
</svg>
