<svg width="107" height="107" viewBox="0 0 107 107" fill="none" xmlns="http://www.w3.org/2000/svg">
<g clip-path="url(#clip0_434_2457)">
<path d="M86.1802 46.4047C83.7838 46.4036 81.4071 46.8374 79.1656 47.685L68.7494 29.8316H79.5509C80.43 29.8316 81.2731 30.1809 81.8947 30.8025C82.5163 31.4241 82.8655 32.2672 82.8655 33.1463C82.8655 34.0253 83.2147 34.8684 83.8364 35.49C84.458 36.1117 85.3011 36.4609 86.1802 36.4609C87.0592 36.4609 87.9023 36.1117 88.5239 35.49C89.1456 34.8684 89.4948 34.0253 89.4948 33.1463C89.4948 30.509 88.4471 27.9797 86.5823 26.1149C84.7175 24.25 82.1882 23.2024 79.5509 23.2024H62.9778C62.3966 23.2037 61.826 23.3578 61.3231 23.6493C60.8203 23.9407 60.4029 24.3593 60.1129 24.863C59.8229 25.3666 59.6704 25.9377 59.6707 26.5189C59.6711 27.1001 59.8242 27.671 60.1148 28.1743L64.9417 36.4609H41.1262L34.3519 24.8597C34.0616 24.3569 33.6444 23.9392 33.1419 23.6483C32.6395 23.3575 32.0695 23.2037 31.4889 23.2024H19.8877C19.0086 23.2024 18.1656 23.5516 17.5439 24.1732C16.9223 24.7948 16.5731 25.6379 16.5731 26.517C16.5731 27.3961 16.9223 28.2392 17.5439 28.8608C18.1656 29.4824 19.0086 29.8316 19.8877 29.8316H29.5871L35.2676 39.5725L28.7585 48.5012C24.2863 46.2632 19.1365 45.7872 14.3298 47.1675C9.5232 48.5479 5.41064 51.6838 2.8074 55.9538C0.20415 60.2237 -0.699741 65.3159 0.274898 70.2209C1.24954 75.1259 4.03156 79.4857 8.06948 82.436C12.1074 85.3863 17.1065 86.7118 22.0757 86.1496C27.0449 85.5875 31.6215 83.1788 34.8983 79.401C38.1752 75.6232 39.9129 70.7521 39.7672 65.7533C39.6215 60.7546 37.6029 55.993 34.1116 52.4125L38.9137 45.8247L51.8282 67.9498C52.0301 68.3551 52.3128 68.7148 52.659 69.0067C53.0052 69.2985 53.4075 69.5163 53.8411 69.6467C54.2747 69.7771 54.7305 69.8172 55.1802 69.7647C55.6299 69.7121 56.0641 69.5679 56.456 69.3411C56.8479 69.1143 57.1891 68.8095 57.4587 68.4457C57.7283 68.0819 57.9204 67.6667 58.0233 67.2257C58.1262 66.7848 58.1377 66.3274 58.057 65.8819C57.9763 65.4363 57.8052 65.012 57.5543 64.6352L44.9918 43.0901H68.8074L73.4437 51.0328C69.8543 54.0328 67.4373 58.2022 66.6176 62.8079C65.798 67.4136 66.6281 72.1608 68.9621 76.215C71.2962 80.2692 74.9847 83.3709 79.3792 84.9748C83.7737 86.5787 88.593 86.5821 92.9898 84.9844C97.3866 83.3868 101.079 80.2903 103.419 76.2394C105.759 72.1885 106.596 67.4424 105.783 62.8355C104.97 58.2287 102.558 54.0559 98.9732 51.0508C95.388 48.0457 90.8582 46.4006 86.1802 46.4047ZM33.1462 66.2925C33.147 69.1283 32.2385 71.8897 30.5541 74.1712C28.8697 76.4526 26.4982 78.1338 23.7878 78.968C21.0774 79.8022 18.171 79.7454 15.4953 78.8059C12.8196 77.8664 10.5156 76.0937 8.92167 73.7482C7.32776 71.4027 6.52789 68.6079 6.63952 65.7742C6.75116 62.9406 7.76842 60.2174 9.54192 58.0045C11.3154 55.7916 13.7517 54.2057 16.4931 53.4796C19.2344 52.7535 22.1363 52.9255 24.7727 53.9704L17.2112 64.3286C16.9359 64.6787 16.734 65.0807 16.6175 65.5107C16.5011 65.9406 16.4725 66.3895 16.5334 66.8308C16.5944 67.272 16.7436 67.6964 16.9722 68.0787C17.2009 68.4609 17.5042 68.7932 17.8641 69.0556C18.224 69.318 18.6331 69.5052 19.067 69.6059C19.5008 69.7067 19.9505 69.719 20.3892 69.6421C20.828 69.5652 21.2467 69.4006 21.6204 69.1583C21.9941 68.9159 22.3151 68.6007 22.5643 68.2315L30.1258 57.8733C32.0811 60.243 33.1491 63.2202 33.1462 66.2925ZM86.1802 79.551C83.5541 79.549 80.9878 78.7672 78.8067 77.3047C76.6255 75.8423 74.9278 73.7651 73.9287 71.3365C72.9297 68.9079 72.6743 66.2373 73.1951 63.6634C73.7158 61.0895 74.9891 58.7282 76.8536 56.8789L83.3171 67.9498C83.519 68.3551 83.8017 68.7148 84.1479 69.0067C84.4941 69.2985 84.8964 69.5163 85.33 69.6467C85.7636 69.7771 86.2194 69.8172 86.6691 69.7647C87.1188 69.7121 87.553 69.5679 87.9449 69.3411C88.3368 69.1143 88.678 68.8095 88.9476 68.4457C89.2172 68.0819 89.4093 67.6667 89.5122 67.2257C89.6151 66.7848 89.6266 66.3274 89.5459 65.8819C89.4652 65.4363 89.2941 65.012 89.0432 64.6352L82.5755 53.5353C84.3993 53.019 86.3125 52.8998 88.1863 53.1856C90.06 53.4714 91.8507 54.1557 93.4376 55.1922C95.0245 56.2288 96.3707 57.5935 97.3854 59.1945C98.4002 60.7954 99.0598 62.5953 99.32 64.4728C99.5801 66.3503 99.4347 68.2617 98.8934 70.0783C98.3522 71.8948 97.4278 73.5741 96.1826 75.0031C94.9373 76.4321 93.4001 77.5774 91.6746 78.362C89.9492 79.1465 88.0756 79.5519 86.1802 79.551Z" fill="#FD1850"/>
</g>
<defs>
<clipPath id="clip0_434_2457">
<rect width="106.068" height="106.068" fill="white"/>
</clipPath>
</defs>
</svg>
