<svg width="107" height="107" viewBox="0 0 107 107" fill="none" xmlns="http://www.w3.org/2000/svg">
<path d="M92.6768 27.4077L56.216 7.45784C55.2418 6.91956 54.147 6.63721 53.0339 6.63721C51.9209 6.63721 50.8261 6.91956 49.8519 7.45784L13.3911 27.416C12.3498 27.9857 11.4806 28.8246 10.8742 29.8449C10.2679 30.8652 9.94656 32.0297 9.94386 33.2166V72.8429C9.94656 74.0298 10.2679 75.1943 10.8742 76.2146C11.4806 77.2349 12.3498 78.0738 13.3911 78.6435L49.8519 98.6016C50.8261 99.1399 51.9209 99.4223 53.0339 99.4223C54.147 99.4223 55.2418 99.1399 56.216 98.6016L92.6768 78.6435C93.7181 78.0738 94.5873 77.2349 95.1936 76.2146C95.8 75.1943 96.1213 74.0298 96.124 72.8429V33.2207C96.1236 32.0317 95.8033 30.8647 95.1968 29.842C94.5903 28.8192 93.7199 27.9785 92.6768 27.4077ZM53.0339 13.2584L86.321 31.4888L53.0339 49.7193L19.7469 31.4888L53.0339 13.2584ZM16.5731 37.2894L49.7193 55.4287V90.9739L16.5731 72.847V37.2894ZM56.3486 90.9739V55.4453L89.4948 37.2894V72.8305L56.3486 90.9739Z" fill="#FD1850"/>
</svg>
