<svg width="107" height="107" viewBox="0 0 107 107" fill="none" xmlns="http://www.w3.org/2000/svg">
<path d="M53.034 33.1462C49.1005 33.1462 45.2554 34.3126 41.9849 36.4979C38.7144 38.6832 36.1653 41.7892 34.6601 45.4232C33.1548 49.0572 32.761 53.056 33.5284 56.9138C34.2957 60.7717 36.1899 64.3153 38.9712 67.0967C41.7526 69.878 45.2962 71.7721 49.154 72.5395C53.0119 73.3069 57.0106 72.913 60.6447 71.4078C64.2787 69.9025 67.3847 67.3535 69.57 64.083C71.7553 60.8124 72.9217 56.9673 72.9217 53.0339C72.9162 47.7611 70.8191 42.7057 67.0906 38.9772C63.3622 35.2487 58.3068 33.1517 53.034 33.1462ZM53.034 66.2924C50.4117 66.2924 47.8483 65.5148 45.6679 64.0579C43.4876 62.6011 41.7882 60.5304 40.7847 58.1077C39.7812 55.685 39.5186 53.0192 40.0302 50.4473C40.5418 47.8754 41.8046 45.513 43.6588 43.6588C45.513 41.8045 47.8755 40.5418 50.4473 40.0302C53.0192 39.5186 55.6851 39.7812 58.1077 40.7847C60.5304 41.7882 62.6011 43.4876 64.058 45.6679C65.5148 47.8482 66.2924 50.4116 66.2924 53.0339C66.2924 56.5503 64.8956 59.9226 62.4091 62.4091C59.9227 64.8955 56.5503 66.2924 53.034 66.2924ZM89.4948 53.9289C89.5114 53.3322 89.5114 52.7356 89.4948 52.139L95.6766 44.4159C96.0007 44.0104 96.2251 43.5344 96.3316 43.0264C96.4381 42.5183 96.4238 41.9923 96.2898 41.4908C95.2764 37.6814 93.7605 34.0239 91.7819 30.6146C91.5228 30.1685 91.1632 29.789 90.7316 29.5063C90.3 29.2236 89.8084 29.0456 89.2959 28.9863L79.4681 27.8925C79.0593 27.4616 78.6449 27.0473 78.2251 26.6495L77.065 16.7968C77.0053 16.2839 76.8266 15.7921 76.5432 15.3605C76.2598 14.9289 75.8794 14.5694 75.4325 14.3109C72.0219 12.3359 68.3647 10.8215 64.5564 9.80711C64.0546 9.67369 63.5284 9.66004 63.0203 9.76727C62.5122 9.8745 62.0364 10.0996 61.6312 10.4245L53.9289 16.5731H52.139L44.4159 10.4037C44.0104 10.0796 43.5345 9.85525 43.0264 9.74874C42.5183 9.64223 41.9923 9.65655 41.4908 9.79054C37.6821 10.8058 34.0248 12.3216 30.6147 14.2984C30.1685 14.5575 29.789 14.9171 29.5063 15.3487C29.2236 15.7803 29.0456 16.2719 28.9864 16.7844L27.8925 26.6288C27.4616 27.0404 27.0473 27.4547 26.6496 27.8718L16.7969 29.0029C16.284 29.0626 15.7921 29.2413 15.3605 29.5247C14.9289 29.8081 14.5695 30.1884 14.3109 30.6354C12.3359 34.0459 10.8215 37.7031 9.80714 41.5115C9.67372 42.0133 9.66007 42.5395 9.7673 43.0476C9.87453 43.5557 10.0996 44.0315 10.4245 44.4366L16.5731 52.139V53.9289L10.4038 61.6519C10.0796 62.0574 9.85528 62.5334 9.74877 63.0415C9.64226 63.5496 9.65658 64.0756 9.79057 64.5771C10.8039 68.3864 12.3199 72.0439 14.2985 75.4532C14.5575 75.8993 14.9172 76.2789 15.3487 76.5616C15.7803 76.8442 16.2719 77.0223 16.7844 77.0815L26.6123 78.1753C27.0238 78.6062 27.4382 79.0205 27.8553 79.4183L29.0029 89.271C29.0626 89.7839 29.2413 90.2758 29.5247 90.7074C29.8081 91.139 30.1885 91.4984 30.6354 91.757C34.046 93.7319 37.7032 95.2464 41.5115 96.2607C42.0134 96.3942 42.5395 96.4078 43.0476 96.3006C43.5557 96.1933 44.0315 95.9682 44.4366 95.6434L52.139 89.4948C52.7356 89.5113 53.3323 89.5113 53.9289 89.4948L61.652 95.6765C62.0575 96.0007 62.5334 96.225 63.0415 96.3315C63.5496 96.438 64.0756 96.4237 64.5771 96.2897C68.3865 95.2764 72.0439 93.7604 75.4532 91.7818C75.8994 91.5228 76.2789 91.1631 76.5616 90.7316C76.8443 90.3 77.0223 89.8084 77.0815 89.2959L78.1754 79.468C78.6063 79.0592 79.0206 78.6449 79.4183 78.225L89.271 77.0649C89.7839 77.0053 90.2758 76.8266 90.7074 76.5432C91.139 76.2597 91.4984 75.8794 91.757 75.4325C93.732 72.0219 95.2464 68.3647 96.2608 64.5564C96.3942 64.0545 96.4078 63.5283 96.3006 63.0202C96.1934 62.5121 95.9683 62.0364 95.6434 61.6312L89.4948 53.9289ZM82.8241 51.2357C82.8945 52.4335 82.8945 53.6343 82.8241 54.8321C82.7747 55.6521 83.0317 56.4613 83.545 57.1026L89.4244 64.4487C88.7497 66.5926 87.8858 68.6724 86.8431 70.6636L77.4793 71.7242C76.6638 71.8148 75.9109 72.2045 75.3662 72.8181C74.5687 73.7151 73.7193 74.5646 72.8222 75.362C72.2087 75.9067 71.8189 76.6597 71.7284 77.4751L70.6885 86.8306C68.6976 87.874 66.6177 88.7378 64.4735 89.4119L57.1234 83.5326C56.5352 83.0626 55.8046 82.8069 55.0517 82.8075H54.8528C53.6551 82.8779 52.4542 82.8779 51.2565 82.8075C50.4365 82.7581 49.6273 83.0151 48.986 83.5284L41.6192 89.4119C39.4752 88.7372 37.3954 87.8734 35.4043 86.8306L34.3436 77.4793C34.2531 76.6638 33.8634 75.9109 33.2498 75.3662C32.3527 74.5687 31.5033 73.7193 30.7058 72.8222C30.1611 72.2086 29.4082 71.8189 28.5928 71.7284L19.2372 70.6843C18.1939 68.6934 17.3301 66.6136 16.656 64.4694L22.5353 57.1192C23.0487 56.4778 23.3056 55.6687 23.2562 54.8487C23.1859 53.6509 23.1859 52.4501 23.2562 51.2523C23.3056 50.4323 23.0487 49.6231 22.5353 48.9818L16.656 41.6192C17.3307 39.4752 18.1945 37.3954 19.2372 35.4043L28.5886 34.3436C29.4041 34.2531 30.157 33.8633 30.7017 33.2498C31.4992 32.3527 32.3486 31.5033 33.2457 30.7058C33.8617 30.1607 34.253 29.4061 34.3436 28.5886L35.3836 19.2372C37.3744 18.1939 39.4543 17.33 41.5985 16.6559L48.9487 22.5353C49.59 23.0486 50.3992 23.3056 51.2192 23.2562C52.417 23.1858 53.6178 23.1858 54.8156 23.2562C55.6356 23.3056 56.4447 23.0486 57.0861 22.5353L64.4487 16.6559C66.5927 17.3306 68.6725 18.1945 70.6636 19.2372L71.7243 28.5886C71.8148 29.404 72.2045 30.157 72.8181 30.7017C73.7151 31.4991 74.5646 32.3486 75.3621 33.2456C75.9068 33.8592 76.6597 34.2489 77.4751 34.3395L86.8307 35.3794C87.874 37.3703 88.7378 39.4501 89.4119 41.5943L83.5326 48.9445C83.0143 49.5913 82.7571 50.4087 82.8117 51.2357H82.8241Z" fill="#FD1850"/>
</svg>
