<svg width="81" height="81" viewBox="0 0 81 81" fill="none" xmlns="http://www.w3.org/2000/svg">
<path d="M35.6064 61.4251L53.072 40.5001H39.572L42.0189 21.3469L26.4095 43.8751H38.1376L35.6064 61.4251ZM30.3751 50.6251H19.9126C18.5626 50.6251 17.5636 50.0209 16.9156 48.8127C16.2676 47.6044 16.3385 46.4367 17.1282 45.3094L42.3564 9.0282C42.9189 8.2407 43.6501 7.69282 44.5501 7.38457C45.4501 7.07632 46.3782 7.08982 47.3345 7.42507C48.2907 7.76032 48.9939 8.35095 49.4439 9.19695C49.8939 10.0429 50.0626 10.9429 49.9501 11.8969L47.2501 33.7501H60.3283C61.7908 33.7501 62.8179 34.3969 63.4096 35.6907C64.0014 36.9844 63.818 38.1938 62.8595 39.3188L35.1001 72.5626C34.4814 73.2938 33.722 73.7719 32.822 73.9969C31.922 74.2219 31.0501 74.1376 30.2064 73.7438C29.3626 73.3501 28.7022 72.7459 28.2252 71.9314C27.7482 71.1169 27.5649 70.2304 27.6751 69.2719L30.3751 50.6251Z" fill="#FACC15"/>
</svg>
