<svg width="81" height="81" viewBox="0 0 81 81" fill="none" xmlns="http://www.w3.org/2000/svg">
<g clip-path="url(#clip0_360_1495)">
<path d="M16.7569 56.9733C12.0091 56.9733 8.02989 55.3679 4.81927 52.1573C1.60866 48.9467 0.00223653 44.9664 2.28762e-06 40.2164C-0.00223196 35.4664 1.63212 31.4872 4.90306 28.2788C8.174 25.0704 12.1253 23.464 16.7569 23.4595C21.0578 23.4595 24.675 24.7442 27.6086 27.3136C30.5422 29.883 32.3988 33.0668 33.1786 36.865H35.357L29.3245 20.1082H26.811C25.8614 20.1082 25.066 19.7864 24.4248 19.143C23.7836 18.4995 23.4618 17.7041 23.4596 16.7568C23.4574 15.8095 23.7791 15.0141 24.4248 14.3706C25.0705 13.7272 25.8659 13.4054 26.811 13.4054H36.8651C37.8146 13.4054 38.6111 13.7272 39.2546 14.3706C39.8981 15.0141 40.2187 15.8095 40.2165 16.7568C40.2142 17.7041 39.8925 18.5006 39.2513 19.1463C38.61 19.792 37.8146 20.1126 36.8651 20.1082H36.5299L37.7029 23.4595H53.7895L48.93 10.0541H43.5678C42.6183 10.0541 41.8229 9.73233 41.1816 9.08886C40.5404 8.4454 40.2187 7.65001 40.2165 6.70269C40.2142 5.75537 40.536 4.95998 41.1816 4.31651C41.8273 3.67305 42.6227 3.35132 43.5678 3.35132H48.93C50.3823 3.35132 51.6815 3.74231 52.8277 4.5243C53.9738 5.30628 54.7971 6.36755 55.2976 7.7081L60.995 23.292H63.676C68.3121 23.292 72.2645 24.9263 75.5332 28.195C78.8019 31.4637 80.4351 35.415 80.4329 40.0488C80.4329 44.7407 78.8131 48.7345 75.5734 52.03C72.3338 55.3255 68.368 56.9733 63.676 56.9733C59.6544 56.9733 56.1221 55.7165 53.079 53.203C50.036 50.6894 48.0944 47.4777 47.2543 43.5678H33.1786C32.3966 47.4218 30.4975 50.6202 27.4812 53.1627C24.465 55.7053 20.8902 56.9755 16.7569 56.9733ZM16.7569 50.2705C19.047 50.2705 21.0164 49.6427 22.6653 48.387C24.3142 47.1314 25.4727 45.525 26.1407 43.5678H20.1082C19.1587 43.5678 18.3633 43.246 17.7221 42.6026C17.0808 41.9591 16.7591 41.1637 16.7569 40.2164C16.7546 39.2691 17.0764 38.4737 17.7221 37.8302C18.3677 37.1868 19.1631 36.865 20.1082 36.865H26.1407C25.4704 34.8542 24.312 33.2344 22.6653 32.0055C21.0187 30.7767 19.0492 30.1623 16.7569 30.1623C13.9082 30.1623 11.5209 31.1264 9.59498 33.0545C7.66906 34.9827 6.70498 37.37 6.70274 40.2164C6.70274 43.0092 7.66682 45.3831 9.59498 47.3381C11.5231 49.293 13.9104 50.2705 16.7569 50.2705ZM42.5624 36.865H47.2543C47.5336 35.5803 47.9112 34.3794 48.3871 33.2623C48.863 32.1452 49.4908 31.1118 50.2706 30.1623H40.0489L42.5624 36.865ZM63.676 50.2705C66.5247 50.2705 68.9131 49.293 70.8413 47.3381C72.7694 45.3831 73.7324 43.0092 73.7302 40.2164C73.7302 37.3677 72.7672 34.9804 70.8413 33.0545C68.9154 31.1286 66.5269 30.1645 63.676 30.1623H63.3409L65.5193 35.9434C65.8544 36.8371 65.8265 37.6895 65.4355 38.5005C65.0445 39.3115 64.4022 39.8835 63.5085 40.2164C62.6148 40.5493 61.749 40.5214 60.9112 40.1326C60.0733 39.7439 59.4868 39.1015 59.1517 38.2056L57.1409 32.5082C56.0237 33.4578 55.158 34.5749 54.5436 35.8596C53.9291 37.1443 53.6219 38.5966 53.6219 40.2164C53.6219 43.0092 54.586 45.3831 56.5142 47.3381C58.4423 49.293 60.8296 50.2705 63.676 50.2705ZM43.5678 70.3787V74.4004C43.5678 75.0148 43.3019 75.4896 42.7702 75.8247C42.2384 76.1598 41.6944 76.1878 41.1381 75.9085L26.6434 68.6193C26.2524 68.3958 26.0982 68.0741 26.1809 67.6541C26.2636 67.234 26.5295 67.0251 26.9785 67.0274H36.8651V63.0057C36.8651 62.3913 37.131 61.9165 37.6627 61.5814C38.1945 61.2462 38.7385 61.2183 39.2948 61.4976L53.7895 68.7868C54.1805 69.0103 54.3347 69.332 54.252 69.752C54.1693 70.1721 53.9035 70.381 53.4544 70.3787H43.5678Z" fill="#FACC15"/>
</g>
<defs>
<clipPath id="clip0_360_1495">
<rect width="80.4329" height="80.4329" fill="white"/>
</clipPath>
</defs>
</svg>
