<svg width="81" height="81" viewBox="0 0 81 81" fill="none" xmlns="http://www.w3.org/2000/svg">
<path d="M54.0962 52.4142H45.4176C44.9548 52.4142 44.5498 52.2406 44.2026 51.8935C43.8555 51.5464 43.6819 51.1414 43.6819 50.6785V33.3214C43.6819 32.8585 43.8555 32.4535 44.2026 32.1064C44.5498 31.7592 44.9548 31.5856 45.4176 31.5856H54.0962C55.0798 31.5856 55.9048 31.9189 56.5713 32.5854C57.2379 33.2519 57.57 34.0758 57.5676 35.0571V48.9428C57.5676 49.9264 57.2344 50.7514 56.5679 51.4179C55.9014 52.0844 55.0775 52.4165 54.0962 52.4142ZM36.7391 52.4142H28.9284C28.1762 52.4142 27.5548 52.1677 27.0642 51.6748C26.5736 51.1819 26.3271 50.5605 26.3248 49.8106C26.3225 49.0608 26.5689 48.4394 27.0642 47.9465C27.5595 47.4535 28.1808 47.2071 28.9284 47.2071H35.0034V43.7356H31.5319C31.0691 43.7356 30.6641 43.5621 30.3169 43.2149C29.9698 42.8678 29.7962 42.4628 29.7962 41.9999C29.7962 41.5371 29.9698 41.1321 30.3169 40.7849C30.6641 40.4378 31.0691 40.2642 31.5319 40.2642H35.0034V36.7928H28.9284C28.1762 36.7928 27.5548 36.5463 27.0642 36.0534C26.5736 35.5604 26.3271 34.939 26.3248 34.1892C26.3225 33.4394 26.5689 32.818 27.0642 32.3251C27.5595 31.8321 28.1808 31.5856 28.9284 31.5856H36.7391C37.7226 31.5856 38.5477 31.9189 39.2142 32.5854C39.8807 33.2519 40.2128 34.0758 40.2105 35.0571V48.9428C40.2105 49.9264 39.8772 50.7514 39.2107 51.4179C38.5442 52.0844 37.7203 52.4165 36.7391 52.4142ZM48.8891 47.2071H52.3605V36.7928H48.8891V47.2071ZM70.7174 44.4716C70.0509 43.8097 69.7176 42.9858 69.7176 41.9999C69.7176 35.3464 67.6209 29.4739 63.4274 24.3824C59.2339 19.291 53.8671 16.0799 47.3269 14.7492L49.9305 17.3528C50.5669 17.9892 50.8851 18.7992 50.8851 19.7828C50.8851 20.7664 50.5669 21.5764 49.9305 22.2128C49.2941 22.8492 48.4841 23.1674 47.5005 23.1674C46.5169 23.1674 45.7069 22.8492 45.0705 22.2128L33.8751 11.0174C33.4123 10.5546 33.2676 9.976 33.4412 9.28172C33.6148 8.58743 34.0487 8.1535 34.743 7.97993C35.9001 7.69064 37.0862 7.50319 38.3012 7.41756C39.5162 7.33193 40.7312 7.28796 41.9462 7.28564C46.7484 7.28564 51.2612 8.19747 55.4848 10.0211C59.7084 11.8448 63.3823 14.3176 66.5066 17.4396C69.6309 20.5615 72.1048 24.2355 73.9285 28.4614C75.7521 32.6872 76.6628 37.2001 76.6605 41.9999C76.6605 42.9835 76.3272 43.8085 75.6607 44.4751C74.9942 45.1416 74.1703 45.4737 73.1891 45.4714C72.2078 45.469 71.3839 45.1358 70.7174 44.4716ZM41.9462 76.7142C37.1441 76.7142 32.6312 75.8024 28.4076 73.9787C24.1841 72.1551 20.5101 69.6823 17.3859 66.5603C14.2616 63.4383 11.7888 59.7644 9.96742 55.5385C8.14608 51.3126 7.23425 46.7998 7.23193 41.9999C7.23193 41.0164 7.56519 40.1925 8.23171 39.5283C8.89822 38.8641 9.7221 38.5308 10.7034 38.5285C11.6846 38.5262 12.5097 38.8594 13.1785 39.5283C13.8473 40.1971 14.1794 41.021 14.1748 41.9999C14.1748 48.6535 16.2727 54.526 20.4685 59.6174C24.6643 64.7089 30.03 67.9199 36.5655 69.2506L33.9619 66.6471C33.3255 66.0106 33.0073 65.2006 33.0073 64.2171C33.0073 63.2335 33.3255 62.4235 33.9619 61.7871C34.5984 61.1506 35.4084 60.8324 36.3919 60.8324C37.3755 60.8324 38.1855 61.1506 38.8219 61.7871L50.0173 72.9824C50.4801 73.4453 50.6248 74.0238 50.4512 74.7181C50.2776 75.4124 49.8437 75.8463 49.1494 76.0199C47.9923 76.3092 46.8062 76.4978 45.5912 76.5858C44.3762 76.6737 43.1612 76.7165 41.9462 76.7142Z" fill="#FACC15"/>
</svg>
